<svg width="141" height="89" viewBox="0 0 141 89" fill="none" xmlns="http://www.w3.org/2000/svg">
<rect width="141" height="89" fill="white"/>
<path d="M45.5226 49.3077L43.6209 42.9231H34.759L32.8573 49.3077H27L35.7479 22.4615H42.8983L51.5321 49.3077H45.5226ZM39.247 27.7692H39.0568L36.1282 37.9615H42.2137L39.247 27.7692ZM54.5584 49.3077V44.6538H57.9815V27.1154H54.5584V22.4615H67.1858V27.1154H63.7627V44.6538H67.1858V49.3077H54.5584ZM79.0768 49.3077V38.6923L69.9486 22.4615H73.5999L80.6742 35.3846H80.7883L87.8627 22.4615H91.514L82.2717 38.5769V49.3077H79.0768ZM104.123 49.7692C100.75 49.7692 98.1256 48.6154 96.2492 46.3077C94.3729 43.9744 93.4347 40.5513 93.4347 36.0385C93.4347 31.5256 94.3729 28.0641 96.2492 25.6538C98.1256 23.2179 100.75 22 104.123 22C106.354 22 108.217 22.5128 109.714 23.5385C111.235 24.5641 112.414 26.0128 113.251 27.8846L110.665 29.4615C110.132 28.0769 109.32 26.9744 108.23 26.1538C107.14 25.3077 105.77 24.8846 104.123 24.8846C102.982 24.8846 101.954 25.1025 101.042 25.5385C100.154 25.9744 99.3934 26.6025 98.7595 27.4231C98.1509 28.2179 97.6819 29.1795 97.3522 30.3077C97.0226 31.4102 96.8578 32.6538 96.8578 34.0385V38.0385C96.8578 40.8077 97.4917 42.9744 98.7595 44.5385C100.027 46.1025 101.815 46.8846 104.123 46.8846C105.821 46.8846 107.241 46.4487 108.383 45.5769C109.524 44.6795 110.36 43.5 110.893 42.0385L113.441 43.6538C112.604 45.5513 111.399 47.0513 109.828 48.1538C108.255 49.2308 106.354 49.7692 104.123 49.7692Z" fill="#0065F2"/>
<path d="M28.3743 68.5384V67.4615H29.8652V58.8768H28.3743V57.7999H32.6341V58.8768H31.1432V67.4615H32.6341V68.5384H28.3743ZM48.2645 61.9845L46.9866 59.5999H46.9409V68.5384H45.6934V57.7999H47.1691L51.0486 64.3538L52.3266 66.7384H52.3722V57.7999H53.6197V68.5384H52.144L48.2645 61.9845ZM67.1756 57.7999H70.7356C71.3948 57.7999 71.9932 57.9128 72.5308 58.1384C73.0683 58.364 73.5247 58.7025 73.9 59.1538C74.2854 59.5948 74.5795 60.1538 74.7824 60.8307C74.9852 61.4974 75.0867 62.2768 75.0867 63.1692C75.0867 64.0615 74.9852 64.8461 74.7824 65.523C74.5795 66.1897 74.2854 66.7486 73.9 67.1999C73.5247 67.6409 73.0683 67.9743 72.5308 68.1999C71.9932 68.4255 71.3948 68.5384 70.7356 68.5384H67.1756V57.7999ZM70.7356 67.3999C71.1717 67.3999 71.5723 67.3282 71.9375 67.1845C72.3026 67.0307 72.617 66.8102 72.8807 66.523C73.1444 66.2358 73.3472 65.8871 73.4892 65.4768C73.6414 65.0563 73.7175 64.5794 73.7175 64.0461V62.2922C73.7175 61.7589 73.6414 61.2871 73.4892 60.8768C73.3472 60.4563 73.1444 60.1025 72.8807 59.8153C72.617 59.5282 72.3026 59.3128 71.9375 59.1692C71.5723 59.0153 71.1717 58.9384 70.7356 58.9384H68.4535V67.3999H70.7356ZM87.606 68.5384V67.4615H89.097V58.8768H87.606V57.7999H91.8658V58.8768H90.3749V67.4615H91.8658V68.5384H87.606ZM111.574 68.5384L110.509 65.3692H106.218L105.153 68.5384H103.86L107.572 57.7999H109.2L112.912 68.5384H111.574ZM108.394 58.9999H108.318L106.523 64.2307H110.189L108.394 58.9999Z" fill="black"/>
</svg>
