<svg width="108" height="37" viewBox="0 0 108 37" fill="none" xmlns="http://www.w3.org/2000/svg">
<path d="M25.1 36L21.95 26.55H8.9L5.85 36H0.1L12 1.1H19.1L31 36H25.1ZM15.55 6.3H15.3L10.25 21.7H20.55L15.55 6.3ZM34.4055 36V31.4H39.1555V5.7H34.4055V1.1H49.6055V5.7H44.8055V31.4H49.6055V36H34.4055ZM64.7562 36V21.85L52.7063 1.1H56.1063L66.2063 18.7H66.3563L76.4563 1.1H79.8563L67.7563 21.7V36H64.7562ZM95.3047 36.6C90.9714 36.6 87.6214 35.1 85.2547 32.1C82.888 29.0667 81.7047 24.5833 81.7047 18.65C81.7047 12.75 82.888 8.25 85.2547 5.15C87.6214 2.05 90.9714 0.499998 95.3047 0.499998C98.1047 0.499998 100.455 1.16667 102.355 2.5C104.288 3.83333 105.788 5.65 106.855 7.95L104.405 9.4C103.638 7.5 102.471 6 100.905 4.9C99.3714 3.76667 97.5047 3.2 95.3047 3.2C92.038 3.2 89.488 4.36667 87.6547 6.7C85.8214 9.03333 84.9047 12.3667 84.9047 16.7V20.65C84.9047 24.95 85.8214 28.2333 87.6547 30.5C89.488 32.7667 92.038 33.9 95.3047 33.9C97.638 33.9 99.588 33.3167 101.155 32.15C102.721 30.95 103.888 29.35 104.655 27.35L107.105 28.8C106.071 31.2 104.555 33.1 102.555 34.5C100.555 35.9 98.138 36.6 95.3047 36.6Z" fill="#0065F2"/>
</svg>
